<?xml version="1.0" standalone="no"?>
<!DOCTYPE svg PUBLIC "-//W3C//DTD SVG 20010904//EN"
 "http://www.w3.org/TR/2001/REC-SVG-20010904/DTD/svg10.dtd">
<svg version="1.0" xmlns="http://www.w3.org/2000/svg"
 width="512.000000pt" height="512.000000pt" viewBox="0 0 512.000000 512.000000"
 preserveAspectRatio="xMidYMid meet">
<metadata>
Created by potrace 1.11, written by Peter Selinger 2001-2013
</metadata>
<g transform="translate(0.000000,512.000000) scale(0.100000,-0.100000)"
fill="#000000" stroke="none">
<path d="M2635 4466 c-38 -17 -81 -67 -89 -103 -3 -16 -139 -825 -301 -1798
-239 -1438 -293 -1777 -285 -1804 14 -51 36 -79 81 -101 38 -20 55 -21 239
-18 216 3 225 5 272 69 29 38 621 3599 608 3649 -13 50 -36 77 -80 100 -35 18
-59 20 -227 20 -134 -1 -197 -5 -218 -14z"/>
<path d="M1440 3664 c-22 -9 -236 -216 -580 -559 l-545 -545 530 -530 c292
-292 547 -542 567 -556 51 -36 113 -42 164 -16 48 25 289 267 303 305 14 36
14 88 1 124 -6 15 -156 173 -333 351 l-322 322 322 323 c177 177 327 335 333
350 13 36 13 88 -1 124 -14 37 -254 280 -301 304 -44 23 -90 24 -138 3z"/>
<path d="M3540 3660 c-46 -24 -286 -267 -299 -303 -14 -36 -14 -88 -1 -124 6
-15 156 -173 333 -350 l322 -323 -322 -322 c-176 -178 -326 -333 -332 -345
-14 -28 -14 -93 0 -130 14 -37 254 -280 301 -304 42 -22 90 -24 129 -6 15 7
276 259 580 560 l553 548 -540 540 c-355 355 -553 546 -580 559 -50 25 -98 25
-144 0z"/>
</g>
</svg>
